<svg width="53" height="45" fill="none" xmlns="http://www.w3.org/2000/svg"><path d="M36.968 1.796c.581.126 1.654 1.002 3.58 2.926.683.677 1.539 1.51 1.907 1.85.79.73 1.237 1.21 1.69 1.8 1.775 2.331 2.016 4.592.747 6.963-.305.566-1.062 1.662-1.589 2.306-1.205 1.455-2.296 2.27-6.414 4.78-1.977 1.2-5.5 3.37-6.382 3.93-.91.57-1.537.964-4.26 2.7-4.14 2.626-6.21 3.883-8.207 4.963-.727.393-1.86.835-1.993.771-.089-.04-.103-.067-.097-.157.012-.192.293-.635.85-1.338.691-.882.817-1.018 1.298-1.444 1.323-1.164 3.409-2.487 9.082-5.77 1.144-.659 2.43-1.407 2.863-1.66.967-.579 1.422-.82 2.903-1.556 2.811-1.4 4.099-2.195 5.652-3.515 1.843-1.558 4.023-4.004 4.748-5.328.438-.791.655-1.78.574-2.58-.049-.485-.324-1.278-.611-1.778-.67-1.158-1.884-2.343-4.141-4.039-2.264-1.7-2.923-2.407-2.9-3.12.009-.285.19-.635.357-.7a.861.861 0 01.343-.004z" fill="#FBFF24"/><path d="M13.48 29.298c.09.02.198.38.235.776.02.206.037.387.042.4a.457.457 0 00.068-.114c.034-.074.1-.125.142-.122.173.028.32.374.915 2.164.837 2.523 1.643 4.246 3.182 6.794.343.566.694 1.19.777 1.379.12.275.194.388.365.564.23.24.315.436.216.507-.088.06-.53-.031-1.451-.309-2.713-.817-4.105-1.028-6.86-1.044-1.003-.011-1.304-.043-1.468-.161-.042-.031-.11-.045-.146-.032-.1.039-.193.007-.227-.08-.054-.14.16-.638.77-1.77 1.334-2.498 1.902-3.943 2.725-6.954.238-.876.463-1.653.494-1.725.098-.199.168-.286.221-.273zm-.128 4.784c-.442 1.813-1.196 3.43-2.12 4.582-.416.508-.415.521-.138.415.287-.103 1.013-.228 1.476-.258 1.335-.082 2.87.214 4.253.817.222.096.416.176.422.174a4.737 4.737 0 00-.288-.346 13.696 13.696 0 01-1.318-1.815c-.55-.902-.764-1.336-1.152-2.348-.397-1.034-.572-1.665-.707-2.579l-.081-.539-.107.678c-.058.371-.165.922-.24 1.22z" fill="#FBFF24"/></svg>