<svg width="94" height="83" fill="none" xmlns="http://www.w3.org/2000/svg"><g filter="url(#a)" fill="#FBFF24"><path d="M43.184 71.891a5 5 0 007.071 0l31.82-31.82a5 5 0 10-7.07-7.07L46.72 61.285 18.436 33a5 5 0 10-7.072 7.07l31.82 31.82zm3.536-10.535h-5v7h10v-7h-5z"/><path d="M43.891 43.184a4 4 0 005.657 0L75.004 17.73a4 4 0 00-5.657-5.657L46.72 34.699 24.092 12.072a4 4 0 00-5.656 5.657L43.89 43.183zm2.829-9.828h-4v7h8v-7h-4z"/></g><defs><filter id="a" x="0" y="0" width="93.44" height="82.256" filterUnits="userSpaceOnUse" color-interpolation-filters="sRGB"><feFlood flood-opacity="0" result="BackgroundImageFix"/><feColorMatrix in="SourceAlpha" values="0 0 0 0 0 0 0 0 0 0 0 0 0 0 0 0 0 0 127 0" result="hardAlpha"/><feOffset dy="-1"/><feGaussianBlur stdDeviation="4.95"/><feComposite in2="hardAlpha" operator="out"/><feColorMatrix values="0 0 0 0 0 0 0 0 0 0 0 0 0 0 0 0 0 0 0.86 0"/><feBlend in2="BackgroundImageFix" result="effect1_dropShadow_53_21"/><feBlend in="SourceGraphic" in2="effect1_dropShadow_53_21" result="shape"/></filter></defs></svg>