<svg width="28" height="28" fill="none" xmlns="http://www.w3.org/2000/svg"><circle cx="14" cy="14" r="14" fill="#fff"/><path d="M14.968 16.875V7h2.522c.197 2.81 2.422 3.41 3.51 3.36v2.443c-.445.305-2.769-.255-3.164-.611-.317-.285-.363-.017-.346.153v3.97c-.04 1.384-.346 2.104-.495 2.29-1.68 2.342-2.818 2.29-4.845 2.393-2.027.101-5.488-3.258-3.61-6.567 1.504-2.646 3.923-2.697 4.945-2.392v2.393c-.396-.204-2.077-.306-2.769 1.272-.692 1.578.84 3.003 2.324 2.901 1.187-.081 1.78-1.187 1.928-1.73z" fill="#2D9CAF"/></svg>