<svg width="28" height="28" fill="none" xmlns="http://www.w3.org/2000/svg"><circle cx="14" cy="14" r="14" fill="#fff"/><path d="M18.903 8.28L8.767 13.105l-.712.394 11.183-2.155c.425 1.33 1.858 1.132 2.522.866l.492 2.553c-.169-.968.548-1.767.928-2.045l-1.797-3.966c-.973.536-2.059-.092-2.48-.472z" fill="#0F6B7A"/><path d="M19.843 18H8.136A2.133 2.133 0 006 16.618V12.17c1.37.097 1.798-.74 1.84-1.17l12.33.09c.043.97 1.238 1.17 1.83 1.15v4.54c-1.311-.057-1.985.79-2.157 1.22z" fill="#2D9CAF" stroke="#2D9CAF"/></svg>