<svg width="28" height="28" fill="none" xmlns="http://www.w3.org/2000/svg"><circle cx="14" cy="14" r="14" fill="#fff"/><path d="M14.892 17.692a.531.531 0 01-.784 0l-2.833-3.1a.531.531 0 11.784-.716l1.91 2.089v-7.84a.531.531 0 011.062 0v7.84l1.91-2.09a.531.531 0 11.784.718l-2.833 3.099z" fill="#2D9CAF"/><path d="M8.656 16.625a.531.531 0 00-1.062 0v.039c0 .969 0 1.75.082 2.363.086.638.27 1.175.696 1.601.426.427.963.61 1.6.696.615.082 1.395.082 2.364.082h4.328c.969 0 1.75 0 2.363-.082.638-.086 1.175-.27 1.601-.696.427-.426.61-.963.696-1.6.082-.615.082-1.395.082-2.364v-.039a.531.531 0 10-1.062 0c0 1.017-.001 1.726-.073 2.26-.07.52-.198.796-.394.992-.196.196-.471.324-.991.394-.535.072-1.244.073-2.261.073h-4.25c-1.017 0-1.726-.001-2.26-.073-.52-.07-.796-.198-.992-.394-.196-.196-.324-.471-.394-.991-.072-.535-.073-1.244-.073-2.261z" fill="#2D9CAF"/></svg>